<svg xmlns="http://www.w3.org/2000/svg" version="1.1" xmlns:xlink="http://www.w3.org/1999/xlink" xmlns:svgjs="http://svgjs.dev/svgjs" width="100%" height="100%" viewBox="0 0 1000 600"><rect width="1000" height="600" x="0" y="0" fill="#DDC6B6 "/><g><circle r="166.66666666666666" cx="338.77089945475257" cy="360.993092605156" fill="#262223" transform="matrix(0.7263044045686363,0,0,0.7263044045686363,0,37.80915139750968)"/><path d="M351.88824005868867 285.9931039742254L401.23840659933194 289.9199513118274L354.06053858587273 355.1167571084673L393.8024616408942 424.43536011053345L348.37914243785286 432.4561546724439L318.60751262298396 390.1798833357077L317.04791368039025 434.43350333180376L276.30339130513005 435.9931022743974L279.45043917143516 285.9931039742254L325.06870824230066 288.52745225594015L321.53176064034716 332.7810722520362L351.88824005868867 285.9931039742254Z " fill="#ddc6b6" transform="matrix(0.7263044045686363,0,0,0.7263044045686363,0,37.80915139750968)"/><path d="M664.3557464673801 285.9931039742254L713.7059130080233 289.9199513118274L666.5280449945642 355.1167571084673L706.2699680495856 424.43536011053345L660.8466488465442 432.4561546724439L631.0750190316753 390.1798833357077L629.5154200890817 434.43350333180376L588.7708977138213 435.9931022743974L591.9179455801266 285.9931039742254L637.5362146509921 288.52745225594015L633.9992670490385 332.7810722520362L664.3557464673801 285.9931039742254ZM826.6932864027129 395.2485798991372L826.6932864027129 395.2485798991372Q826.6932864027129 403.3807743855186 823.7133384231144 409.2571204013627Q820.7333904435156 415.1334664172068 815.7203938423216 419.255263622633Q810.7352472222453 423.34921084694145 804.2183516406932 425.9671090720094Q797.7293060402586 428.55715731595967 790.6554108363515 430.00535633408236Q783.6093656135621 431.48140533332287 776.5076204285373 431.9827049934422Q769.4337252246302 432.4561546724439 763.251029416491 432.4561546724439L763.251029416491 432.4561546724439Q757.1797335328225 432.4561546724439 750.6628379512704 432.0384049556777Q744.1459423697181 431.59280525779377 737.6847467504015 430.50665599420176Q731.2235511310847 429.42050673060976 724.9573053795922 427.6102579579564Q718.6910596280997 425.80000918530294 713.1210634045507 423.070711035764L713.1210634045507 423.070711035764L712.9261135367266 296.9659965346167Q718.4125598169222 294.7101480640794 724.5674056439437 292.89989929142604Q730.7501014520831 291.0896505187726 737.1555971091642 289.8642513495919Q743.5610927662456 288.63885218041116 749.938738442209 287.998302614703Q756.2885341370547 287.3577530489949 762.2762800773698 287.3577530489949L762.2762800773698 287.3577530489949Q769.2109253756882 287.3577530489949 776.3126705607131 288.2489524447627Q783.414415745738 289.1123018594128 789.9870112895256 291.17320046212586Q796.5317568521956 293.234099064839 802.2131530002156 296.52039683673286Q807.8945491482353 299.8066946086267 812.1555962592503 304.5968913608788Q816.4166433702652 309.3870881131308 818.8117417463912 315.7647337890943Q821.2068401225173 322.11452948394003 821.2068401225173 330.4416738381457L821.2068401225173 330.4416738381457Q821.2068401225173 335.9281201183413 819.6472411799235 340.7183168705934Q818.0876422373299 345.50851362284544 815.135544238849 349.3518110170942Q812.2112962214858 353.1672584302252 808.0059490727064 355.8408566175287Q803.7727519428091 358.5423047859499 798.5091055115555 359.82340391736614L798.5091055115555 359.82340391736614Q804.8589012064012 361.4944027844308 810.0946976565373 364.7250005940892Q815.3304941066732 367.95559840374756 819.0066916142155 372.5508452881754Q822.6828891217577 377.1460921726033 824.6880877622353 382.91103826397637Q826.6932864027129 388.70383433646725 826.6932864027129 395.2485798991372ZM776.9532201264212 339.4650677202949L776.9532201264212 339.4650677202949Q776.9532201264212 336.62436964628495 775.783520919476 334.61917100580735Q774.6138217125307 332.586122384212 772.8871228832305 331.33287323391346Q771.1882740350482 330.05177410249723 769.1830753945706 329.4669244990246Q767.1778767540928 328.88207489555197 765.5904278303814 328.88207489555197L765.5904278303814 328.88207489555197Q763.6409291521394 328.88207489555197 761.7749804172505 329.4669244990246Q759.9090316823616 330.05177410249723 758.1544828719436 330.8315735737941L758.1544828719436 330.8315735737941L757.569633268471 352.58240882675256Q759.8254817390083 352.58240882675256 763.1674794731376 352.19250909110417Q766.4816272261493 351.774759374338 769.5729751302189 350.465810261804Q772.6643230342886 349.15686114927 774.8087715803549 346.538962924202Q776.9532201264212 343.94891468025173 776.9532201264212 339.4650677202949ZM763.0560795486667 371.3811460812301L763.0560795486667 371.3811460812301Q760.2153814746567 371.3811460812301 757.569633268471 371.96599568470276L757.569633268471 371.96599568470276L757.1797335328225 394.2738305600161Q758.655782532063 394.58018035231134 760.076131569068 394.830830182371Q761.4964806060731 395.053630031313 762.8611296808425 395.053630031313L762.8611296808425 395.053630031313Q764.9220282835556 395.053630031313 767.3728266219172 394.6358803145468Q769.8236249602786 394.1902806166629 771.9680735063449 392.85348152301117Q774.1125220524112 391.5445324104772 775.5328710894163 389.28868393993986Q776.9532201264212 387.0328354694026 776.9532201264212 383.3287879807425L776.9532201264212 383.3287879807425Q776.9532201264212 379.5968905109648 775.5328710894163 377.2574920970742Q774.1125220524112 374.89024370206596 772.0516234496982 373.5812945895319Q770.0185748281028 372.2444954958802 767.5677764897413 371.7988957979963Q765.1169781513798 371.3811460812301 763.0560795486667 371.3811460812301ZM950.6535523577938 355.1167571084673L950.6535523577938 355.1167571084673Q950.6535523577938 364.02875106614556 948.5926537550807 372.3001954581157Q946.5317551523677 380.57163985008583 942.6606077770012 387.8126349406994Q938.8173103827525 395.053630031313 933.2751641403212 401.09707593386355Q927.7330178978901 407.11267185529636 920.8262225806894 411.42941892854674Q913.9472772446065 415.7183160206794 905.8150827582252 418.1134143968054Q897.6828882718438 420.50851277293145 888.5759444463413 420.50851277293145L888.5759444463413 420.50851277293145Q879.7753504131341 420.50851277293145 871.7824058323414 418.28051428351193Q863.8173112326664 416.0246658129746 856.8548159532303 411.9585685697839Q849.8923206737942 407.8924713265932 844.2666244880098 402.1553752163378Q838.6409283022253 396.4461290872002 834.6862309835057 389.42793384552857Q830.7036836836681 382.4375885849747 828.5035351753663 374.4167940230643Q826.3033866670645 366.3681494800361 826.3033866670645 357.65110539018207L826.3033866670645 357.65110539018207Q826.3033866670645 349.15686114927 828.3642852697776 340.9689667006531Q830.4251838724907 332.7810722520362 834.2963312478572 325.54007716142263Q838.139628642106 318.29908207080905 843.6260749223017 312.22778618714074Q849.1125212024973 306.1564903034724 855.9357665763447 301.7561932868688Q862.7311619690744 297.35589627026513 870.6684065876316 294.90509793190364Q878.577801225071 292.45429959354215 887.4062452393961 292.45429959354215L887.4062452393961 292.45429959354215Q901.6097356094457 292.45429959354215 913.3067276788985 296.8545966101458Q925.003719748351 301.2548936267494 933.2751641403212 309.44278807536625Q941.5466085322915 317.6306825239832 946.0861554544838 329.2162746689649Q950.6535523577938 340.82971679506437 950.6535523577938 355.1167571084673ZM907.1797318329947 357.65110539018207L907.1797318329947 357.65110539018207Q907.1797318329947 353.44575824140264 905.954332663814 349.49106092268295Q904.7289334946331 345.50851362284544 902.3895350807426 342.4450156998936Q900.0222866857343 339.3536677958239 896.568889027134 337.4320190986995Q893.0876413874159 335.5382203826929 888.5759444463413 335.5382203826929L888.5759444463413 335.5382203826929Q883.9806975619134 335.5382203826929 880.3602000166067 337.2092192497576Q876.7397024712999 338.8523681357045 874.1218042462319 341.74876617194997Q871.5317560022817 344.64516420819535 870.1671069275122 348.51631158356184Q868.8024578527427 352.3874589589284 868.8024578527427 356.676356051061L868.8024578527427 356.676356051061Q868.8024578527427 360.79815325648724 869.9721570596879 364.9199504619134Q871.1418562666332 369.01389768622187 873.5091046616416 372.3558954203512Q875.848503075532 375.6700431733628 879.3297507152502 377.7309417760759Q882.8109983549682 379.79184037878895 887.4062452393961 379.79184037878895L887.4062452393961 379.79184037878895Q892.0014921238238 379.79184037878895 895.6776896313662 377.98159160613557Q899.3538871389084 376.1713428334822 901.8882354206231 373.0799949294126Q904.4504336834557 369.9886470253429 905.8150827582252 365.97824974438765Q907.1797318329947 361.96785246343245 907.1797318329947 357.65110539018207ZM1078.512815669359 355.1167571084673L1078.512815669359 355.1167571084673Q1078.512815669359 364.02875106614556 1076.4797670477637 372.3001954581157Q1074.4188684450505 380.57163985008583 1070.547721069684 387.8126349406994Q1066.6765736943175 395.053630031313 1061.1344274518865 401.09707593386355Q1055.620131190573 407.11267185529636 1048.7133358733722 411.42941892854674Q1041.8065405561717 415.7183160206794 1033.6743460697903 418.1134143968054Q1025.542151583409 420.50851277293145 1016.4352077579065 420.50851277293145L1016.4352077579065 420.50851277293145Q1007.6346137246992 420.50851277293145 999.6416691439066 418.28051428351193Q991.6765745442316 416.0246658129746 984.7140792647955 411.9585685697839Q977.7794339664771 407.8924713265932 972.1537377806926 402.1553752163378Q966.5001916137904 396.4461290872002 962.5454942950707 389.42793384552857Q958.590796976351 382.4375885849747 956.3906484680492 374.4167940230643Q954.1626499786297 366.3681494800361 954.1626499786297 357.65110539018207L954.1626499786297 357.65110539018207Q954.1626499786297 349.15686114927 956.2235485813427 340.9689667006531Q958.2844471840559 332.7810722520362 962.1555945594224 325.54007716142263Q966.0267419347889 318.29908207080905 971.5131882149846 312.22778618714074Q976.9996344951802 306.1564903034724 983.7950298879099 301.7561932868688Q990.5904252806396 297.35589627026513 998.5276698991967 294.90509793190364Q1006.464914517754 292.45429959354215 1015.2655085509613 292.45429959354215L1015.2655085509613 292.45429959354215Q1029.468998921011 292.45429959354215 1041.1659909904636 296.8545966101458Q1052.8629830599164 301.2548936267494 1061.1344274518865 309.44278807536625Q1069.4058718438564 317.6306825239832 1073.9732687471665 329.2162746689649Q1078.512815669359 340.82971679506437 1078.512815669359 355.1167571084673ZM1035.03899514456 357.65110539018207L1035.03899514456 357.65110539018207Q1035.03899514456 353.44575824140264 1033.813595975379 349.49106092268295Q1032.616046787316 345.50851362284544 1030.248798392308 342.4450156998936Q1027.9093999784172 339.3536677958239 1024.428152338699 337.4320190986995Q1020.946904698981 335.5382203826929 1016.4352077579065 335.5382203826929L1016.4352077579065 335.5382203826929Q1011.8399608734786 335.5382203826929 1008.2194633281719 337.2092192497576Q1004.598965782865 338.8523681357045 1002.0089175389147 341.74876617194997Q999.4188692949646 344.64516420819535 998.0263702390774 348.51631158356184Q996.6617211643078 352.3874589589284 996.6617211643078 356.676356051061L996.6617211643078 356.676356051061Q996.6617211643078 360.79815325648724 997.8314203712531 364.9199504619134Q999.0289695593161 369.01389768622187 1001.3683679732067 372.3558954203512Q1003.7077663870972 375.6700431733628 1007.1890140268152 377.7309417760759Q1010.6702616665333 379.79184037878895 1015.2655085509613 379.79184037878895L1015.2655085509613 379.79184037878895Q1019.860755435389 379.79184037878895 1023.5369529429314 377.98159160613557Q1027.2131504504737 376.1713428334822 1029.7753487133064 373.0799949294126Q1032.3096969950209 369.9886470253429 1033.6743460697903 365.97824974438765Q1035.03899514456 361.96785246343245 1035.03899514456 357.65110539018207ZM1157.328262232576 291.8694499900695L1204.7289300949774 303.62214202175767L1161.4500594380022 355.1167571084673L1201.1919824930237 422.48586143229136L1155.7686632899822 430.50665599420176L1125.9970334751133 390.1798833357077L1124.4374345325198 428.55715731595967L1083.7207621383773 430.1167562585533L1086.8399600235648 289.9199513118274L1132.4582290944302 292.45429959354215L1128.9491314735942 332.7810722520362L1157.328262232576 291.8694499900695Z " fill="#262223" transform="matrix(0.7263044045686363,0,0,0.7263044045686363,0,37.80915139750968)"/></g></svg>